<mxfile host="app.diagrams.net" modified="2022-08-15T06:16:19.273Z" agent="5.0 (Macintosh; Intel Mac OS X 10_15_7) AppleWebKit/537.36 (KHTML, like Gecko) Chrome/99.0.4844.74 Safari/537.36 Edg/99.0.1150.55" etag="43gDDKXiYmqsHgygl--m" version="20.2.3" type="github">
  <diagram id="mUF7Dhoywo7Pxl9o-WP5" name="第 1 页">
    <mxGraphModel dx="1384" dy="921" grid="1" gridSize="10" guides="1" tooltips="1" connect="1" arrows="1" fold="1" page="1" pageScale="1" pageWidth="1920" pageHeight="1200" math="0" shadow="0">
      <root>
        <mxCell id="0" />
        <mxCell id="1" parent="0" />
        <mxCell id="dPiE7eh1zPIa-c6Ro65R-3" style="edgeStyle=orthogonalEdgeStyle;rounded=0;orthogonalLoop=1;jettySize=auto;html=1;exitX=1;exitY=0.5;exitDx=0;exitDy=0;" edge="1" parent="1" source="dPiE7eh1zPIa-c6Ro65R-1">
          <mxGeometry relative="1" as="geometry">
            <mxPoint x="250" y="110" as="targetPoint" />
          </mxGeometry>
        </mxCell>
        <mxCell id="dPiE7eh1zPIa-c6Ro65R-1" value="web/app业务交互" style="rounded=1;whiteSpace=wrap;html=1;" vertex="1" parent="1">
          <mxGeometry x="60" y="80" width="120" height="60" as="geometry" />
        </mxCell>
        <mxCell id="dPiE7eh1zPIa-c6Ro65R-4" value="nginx" style="rounded=1;whiteSpace=wrap;html=1;" vertex="1" parent="1">
          <mxGeometry x="250" y="80" width="120" height="60" as="geometry" />
        </mxCell>
        <mxCell id="dPiE7eh1zPIa-c6Ro65R-6" value="" style="endArrow=classic;html=1;rounded=0;" edge="1" parent="1" target="dPiE7eh1zPIa-c6Ro65R-9">
          <mxGeometry width="50" height="50" relative="1" as="geometry">
            <mxPoint x="370" y="100" as="sourcePoint" />
            <mxPoint x="440" y="70" as="targetPoint" />
          </mxGeometry>
        </mxCell>
        <mxCell id="dPiE7eh1zPIa-c6Ro65R-7" value="" style="endArrow=classic;html=1;rounded=0;" edge="1" parent="1" target="dPiE7eh1zPIa-c6Ro65R-8">
          <mxGeometry width="50" height="50" relative="1" as="geometry">
            <mxPoint x="370" y="130" as="sourcePoint" />
            <mxPoint x="440" y="150" as="targetPoint" />
          </mxGeometry>
        </mxCell>
        <mxCell id="dPiE7eh1zPIa-c6Ro65R-8" value="业务服务器&lt;br&gt;(springboot)" style="rounded=1;whiteSpace=wrap;html=1;" vertex="1" parent="1">
          <mxGeometry x="440" y="130" width="120" height="60" as="geometry" />
        </mxCell>
        <mxCell id="dPiE7eh1zPIa-c6Ro65R-9" value="业务服务器&lt;br&gt;(springboot)" style="rounded=1;whiteSpace=wrap;html=1;" vertex="1" parent="1">
          <mxGeometry x="440" y="30" width="120" height="60" as="geometry" />
        </mxCell>
      </root>
    </mxGraphModel>
  </diagram>
</mxfile>
